<?xml version="1.0" encoding="iso-8859-1"?>
<!-- Generator: Adobe Illustrator 16.0.0, SVG Export Plug-In . SVG Version: 6.00 Build 0)  -->
<!DOCTYPE svg PUBLIC "-//W3C//DTD SVG 1.1//EN" "http://www.w3.org/Graphics/SVG/1.1/DTD/svg11.dtd">
<svg version="1.1" id="Capa_1" xmlns="http://www.w3.org/2000/svg" xmlns:xlink="http://www.w3.org/1999/xlink" x="0px" y="0px"
	 width="177.485px" height="177.485px" viewBox="0 0 177.485 177.485" style="enable-background:new 0 0 177.485 177.485;"
	 xml:space="preserve">
<g>
	<g>
		<path d="M68.858,37.979c-9.091-7.861-32.096,1.442-23.658,19.624c8.635,18.637,32.246,19.029,41.538,18.418l54.078,93.665
			c-0.608,1.566-0.608,3.369,0.296,4.93c1.59,2.742,5.095,3.682,7.844,2.104c2.748-1.584,3.682-5.095,2.098-7.838
			c-0.91-1.572-2.459-2.464-4.126-2.725L92.858,72.493c5.175-7.729,16.642-28.38,4.829-45.182
			C86.15,10.914,66.588,26.173,68.858,37.979z M67.327,69.727C57.438,68.618,39.922,52.89,52.13,42.912
			C49.122,53.271,57.509,65.684,67.327,69.727z"/>
		<path d="M56.631,16.795c0.698-0.393,0.934-1.283,0.535-1.977l-4.359-7.542c-0.399-0.698-1.289-0.934-1.98-0.532
			c-0.695,0.393-0.931,1.289-0.532,1.978l4.359,7.554C55.047,16.967,55.937,17.209,56.631,16.795z"/>
		<path d="M40.478,31.504c0.467,0.266,1.017,0.249,1.454-0.006c0.216-0.127,0.393-0.295,0.526-0.526
			c0.399-0.692,0.163-1.587-0.532-1.986l-7.548-4.356c-0.698-0.396-1.587-0.159-1.98,0.538c-0.399,0.688-0.163,1.578,0.526,1.98
			L40.478,31.504z"/>
		<path d="M111.492,69.153c-0.703-0.399-1.584-0.16-1.98,0.532c-0.401,0.694-0.165,1.584,0.532,1.986l7.542,4.356
			c0.467,0.271,1.017,0.248,1.454,0c0.213-0.127,0.402-0.302,0.526-0.538c0.408-0.691,0.165-1.581-0.532-1.98L111.492,69.153z"/>
		<path d="M35.822,51.781c0.26,0,0.509-0.068,0.722-0.189c0.437-0.26,0.732-0.718,0.732-1.265c0-0.798-0.653-1.445-1.454-1.445
			h-8.709c-0.81-0.006-1.451,0.647-1.451,1.445c0,0.801,0.647,1.454,1.451,1.454H35.822z"/>
		<path d="M116.144,48.876c-0.804-0.006-1.442,0.647-1.448,1.451c0,0.807,0.656,1.454,1.448,1.448h8.713
			c0.271,0,0.509-0.068,0.727-0.189c0.438-0.26,0.733-0.718,0.733-1.259c0-0.798-0.645-1.451-1.454-1.451H116.144z"/>
		<path d="M42.463,69.691c-0.399-0.698-1.283-0.931-1.98-0.532l-7.548,4.35c-0.694,0.405-0.931,1.297-0.532,1.992
			c0.399,0.683,1.282,0.919,1.986,0.521l7.548-4.351C42.62,71.257,42.856,70.379,42.463,69.691z"/>
		<path d="M117.586,24.636l-7.542,4.351c-0.697,0.405-0.934,1.294-0.532,1.986c0.396,0.688,1.277,0.925,1.975,0.526l7.548-4.35
			c0.697-0.408,0.94-1.292,0.532-1.98C119.17,24.471,118.283,24.234,117.586,24.636z"/>
		<path d="M54.648,84.388l-4.359,7.537c-0.393,0.697-0.157,1.59,0.532,1.985c0.467,0.272,1.017,0.248,1.454,0
			c0.209-0.124,0.393-0.308,0.526-0.532l4.359-7.542c0.405-0.691,0.169-1.584-0.529-1.983C55.931,83.448,55.042,83.69,54.648,84.388
			z"/>
		<path d="M96.798,16.795c0.219-0.127,0.394-0.301,0.526-0.532l4.362-7.533c0.396-0.704,0.159-1.599-0.538-1.986
			c-0.691-0.402-1.584-0.166-1.98,0.532l-4.355,7.542c-0.399,0.688-0.163,1.584,0.525,1.977
			C95.805,17.076,96.36,17.044,96.798,16.795z"/>
		<path d="M74.529,90.494v8.712c0,0.792,0.647,1.442,1.448,1.442c0.266,0.006,0.514-0.071,0.732-0.188
			c0.435-0.249,0.725-0.722,0.725-1.254v-8.725c0-0.791-0.653-1.447-1.457-1.447C75.183,89.034,74.535,89.685,74.529,90.494z"/>
		<path d="M76.716,11.423c0.434-0.249,0.724-0.716,0.724-1.253V1.46c0-0.812-0.647-1.448-1.451-1.46
			c-0.798,0-1.454,0.647-1.454,1.46v8.709c0,0.798,0.656,1.451,1.46,1.451C76.249,11.621,76.498,11.544,76.716,11.423z"/>
	</g>
</g>
<g>
</g>
<g>
</g>
<g>
</g>
<g>
</g>
<g>
</g>
<g>
</g>
<g>
</g>
<g>
</g>
<g>
</g>
<g>
</g>
<g>
</g>
<g>
</g>
<g>
</g>
<g>
</g>
<g>
</g>
</svg>
