<svg height="512" viewBox="0 0 56 56" width="512" xmlns="http://www.w3.org/2000/svg"><g id="Page-1" fill="none" fill-rule="evenodd"><g id="064---Love-Spell" fill="rgb(0,0,0)" fill-rule="nonzero"><path id="Shape" d="m37.238 18.71v-.01l-4.238 1.6c-.3136099.1126094-.6627073.0616135-.931-.136l-3.547-2.612-.05 4.548c-.0039816.3177789-.1587754.6147453-.417.8l-3.731 2.679 4.2 1.215c.3285588.0955421.5854579.3524412.681.681l1.241 4.267 2.653-3.8c.1852547-.2582246.4822211-.4130184.8-.417l4.5-.042-2.568-3.552c-.195923-.2691775-.2450348-.6182087-.131-.931zm-3.531 5.583c.2599566.2510745.3642126.6228779.2726972.9725073-.0915155.3496295-.3645604.6226744-.7141899.7141899-.3496294.0915154-.7214328-.0127406-.9725073-.2726972l-.293-.293-.293.293c-.3923789.3789722-1.0160848.3735524-1.4018186-.0121814s-.3911536-1.0094397-.0121814-1.4018186l.293-.293-.293-.293c-.3789722-.3923789-.3735524-1.0160848.0121814-1.4018186s1.0094397-.3911536 1.4018186-.0121814l.293.293.293-.293c.3923789-.3789722 1.0160848-.3735524 1.4018186.0121814s.3911536 1.0094397.0121814 1.4018186l-.293.293z"/><path id="Shape" d="m22.086 32.5-3.741 3.741c-.006.007-.008.015-.014.022s-.018.01-.026.017l-18.012 18.013c-.39038194.3904999-.39038194 1.0235001 0 1.414.39506878.3791887 1.01893122.3791887 1.414 0l21.793-21.793z"/><path id="Shape" d="m24.914 32.5 2.846-2.845-.319-1.096-1.095-.319-2.846 2.846z"/><path id="Shape" d="m44 0c-8.269 0-12.052 8.15-12.089 8.232-.1619515.35774875-.518301.58759365-.911.58759365s-.7490485-.2298449-.911-.58759365c-.153-.332-3.851-8.232-12.089-8.232-6.841 0-12 6.165-12 14.34 0 7.045 4.245 12.671 11.6 19.821l6.555-6.561-.454-.132c-.7255193-.2218403-1.2600947-.8392983-1.3757933-1.5891018-.1156985-.7498035.2078899-1.4996807.8327933-1.9298982l3.319-2.383.036-3.99c.0062733-.7532925.4301831-1.4408394 1.1004073-1.7847703.6702243-.3439309 1.4759683-.2873906 2.0915927.1467703l3.118 2.3 3.792-1.359c.71443-.2646933 1.5175869-.0890587 2.0563228.4496772s.7143705 1.3418928.4496772 2.0563228c0 .1.228-.636-1.359 3.792l2.3 3.118c.4351182.6152972.4921576 1.4214509.1480113 2.091885-.3441463.670434-1.032425 1.0940021-1.7860113 1.099115l-3.989.037-2.383 3.319c-.4300638.6255074-1.1802929.9495418-1.930507.8338127-.7502142-.115729-1.3679192-.6507828-1.589493-1.3768127l-.131-.453-6.435 6.435c3.138 2.9 5.825 5.332 9.038 8.347 14.574-13.672 25-21.4 25-32.288-.004-8.175-5.163-14.34-12.004-14.34zm-32 24c-.5522847 0-1-.4477153-1-1s.4477153-1 1-1 1 .4477153 1 1-.4477153 1-1 1zm6-20c-6.5 0-9.471 8.373-7.24 14.666.1242441.3379474.0572155.7165959-.1754905.9913558-.2327059.2747598-.59515561.4032035-.9489448.3362839-.35378918-.0669197-.64428704-.3188692-.7605647-.6596397-2.682-7.558 1.125-17.334 9.125-17.334.5522847 0 1 .44771525 1 1s-.4477153 1-1 1zm5.115 17.157h-1.415c-.5522847 0-1-.4477153-1-1s.4477153-1 1-1h1.414c.5522847 0 1 .4477153 1 1s-.4477153 1-1 1zm2.828-6.657c-.3904999.3903819-1.0235001.3903819-1.414 0l-.707-.707c-.2599566-.2510745-.3642126-.6228779-.2726972-.9725073.0915155-.3496295.3645604-.6226744.7141899-.7141899.3496294-.0915154.7214328.0127406.9725073.2726972l.707.707c.3903819.3904999.3903819 1.0235001 0 1.414zm8.072 0c0 .5522847-.4477153 1-1 1s-1-.4477153-1-1v-1.414c0-.5522847.4477153-1 1-1s1 .4477153 1 1zm2.828 19.8c0 .5522847-.4477153 1-1 1s-1-.4477153-1-1v-1.415c0-.5522847.4477153-1 1-1s1 .4477153 1 1zm3.243-19.8.707-.707c.3923789-.3789722 1.0160848-.3735524 1.4018186.0121814s.3911536 1.0094397.0121814 1.4018186c-.645.645-.881 1-1.414 1-.4043959-.0000863-.7689341-.2437275-.923678-.6173454-.1547439-.373618-.0692299-.8036603.216678-1.0896546zm3.535 17.678c-.3904999.3903819-1.0235001.3903819-1.414 0l-.707-.707c-.2599566-.2510745-.3642126-.6228779-.2726972-.9725073.0915155-.3496295.3645604-.6226744.7141899-.7141899.3496294-.0915154.7214328.0127406.9725073.2726972l.707.707c.3903819.3904999.3903819 1.0235001 0 1.414zm-.707-8.193h-1.414c-.5522847 0-1-.4477153-1-1s.4477153-1 1-1h1.414c.5522847 0 1 .4477153 1 1s-.4477153 1-1 1z"/></g></g></svg>